<svg xmlns="http://www.w3.org/2000/svg" width="20.39" height="21.622" viewBox="11 11 20.39 21.622"><path d="M24.272 11H19.27a10.965 10.965 0 0 0-1.807.136 6.632 6.632 0 0 0-3.353 1.551 5.172 5.172 0 0 0-1.741 3.616 4.505 4.505 0 0 0-.003.16c0 2.147 1.587 4.428 4.53 4.428.255 0 .536-.024.792-.049a71.558 71.558 0 0 0 .08-.007l-.04.102c-.119.292-.23.568-.23.997 0 .838.39 1.354.77 1.854l.047.063-.084.006c-.768.054-1.954.138-3.14.456a7.222 7.222 0 0 0-1.988.836C11.152 26.345 11 28.085 11 28.589a3.33 3.33 0 0 0 0 .052c.028 1.751 1.438 3.502 4.513 3.898a10.616 10.616 0 0 0 1.355.083c4.654 0 7.117-2.614 7.178-5.228a4.266 4.266 0 0 0 .001-.1c0-1.847-.99-2.812-2.094-3.777a87.331 87.331 0 0 0-.201-.176l-.998-.8c-.277-.237-.615-.525-.68-1.021a1.343 1.343 0 0 1-.012-.177 1.322 1.322 0 0 1 .113-.538c.118-.267.31-.487.502-.688a17.393 17.393 0 0 1 .108-.112l.035-.036c.93-.755 1.966-1.597 2.233-3.193a4.963 4.963 0 0 0 .065-.819c0-2.156-1.307-3.27-1.936-3.806h1.66a.102.102 0 0 0 .058-.018l1.43-.927a.112.112 0 0 0 .05-.093l-.001-.016a.115.115 0 0 0-.003-.015.108.108 0 0 0-.104-.082Zm7.01 10.099h-2.636V18.39a.11.11 0 0 0-.108-.111h-1.134a.11.11 0 0 0-.108.111V21.1h-2.622a.11.11 0 0 0-.109.11.118.118 0 0 0 0 .001v1.185a.114.114 0 0 0 .04.087.105.105 0 0 0 .069.025h2.622v2.724a.11.11 0 0 0 .108.112h1.134a.11.11 0 0 0 .108-.108.118.118 0 0 0 0-.004v-2.724h2.636a.11.11 0 0 0 .108-.113V21.21a.112.112 0 0 0-.037-.084.106.106 0 0 0-.071-.027Zm-13.076 10.34c-2.873 0-4.803-1.382-4.803-3.441 0-1.315.754-2.277 2.24-2.863a6.324 6.324 0 0 1 .104-.04 6.584 6.584 0 0 1 .718-.2 11.9 11.9 0 0 1 2.08-.252 4.05 4.05 0 0 1 .071-.001 41.406 41.406 0 0 1 .119 0c.17 0 .288.003.434.02a3.645 3.645 0 0 1 .074.008 64.625 64.625 0 0 1 .705.523c1.528 1.153 2.268 1.907 2.271 3.192a3.383 3.383 0 0 1 0 .01c0 1.662-1.205 2.768-3.199 3a7.055 7.055 0 0 1-.814.045Zm-.027-11.338c-2.411 0-3.412-3.268-3.412-5.017a4.806 4.806 0 0 1 .063-.806c.052-.303.136-.576.252-.82a2.467 2.467 0 0 1 .285-.462 2.504 2.504 0 0 1 1.737-.923 2.208 2.208 0 0 1 .175-.007 2.784 2.784 0 0 1 2.233 1.306c.688.947 1.094 2.258 1.185 3.4a6.061 6.061 0 0 1 .02.482c0 .334 0 1.352-.682 2.059a2.765 2.765 0 0 1-1.826.788 2.028 2.028 0 0 1-.03 0Z" fill="rgba(207, 175, 109, 1)" fill-rule="evenodd" data-name="Google plus logo designed by Freepik from Flaticon.com copy"/></svg>