<svg xmlns="http://www.w3.org/2000/svg" width="20" height="20" viewBox="401 0 18.993 25.019">
	<path d="M416.956 2.159a9.112 9.112 0 0 0-3.694-1.83A11.503 11.503 0 0 0 410.496 0a11.11 11.11 0 0 0-3.857.665 8.749 8.749 0 0 0-2.603 1.494C402.05 3.832 401 6.375 401 9.514a10.132 10.132 0 0 0 .301 2.372c1.368 5.664 6.981 11.436 8.169 12.608a17.245 17.245 0 0 0 .21.204 1.184 1.184 0 0 0 .816.321c.307 0 .602-.115.818-.321a15.374 15.374 0 0 0 .15-.146c1.19-1.167 8.529-8.62 8.529-15.038a11.682 11.682 0 0 0-.437-3.266 8.252 8.252 0 0 0-2.6-4.09Zm-7.113 19.477a42.073 42.073 0 0 0 .652.701c2.04-2.144 7.195-8.035 7.195-12.823 0-1.722-.518-7.338-7.194-7.338a8.938 8.938 0 0 0-.684.027c-1.896.146-5.512 1.009-6.338 5.368a10.424 10.424 0 0 0-.172 1.943 7.173 7.173 0 0 0 .06.9c.195 1.545.875 3.325 2.009 5.268a30.351 30.351 0 0 0 1.894 2.84 36.68 36.68 0 0 0 .04.053 42.108 42.108 0 0 0 2.538 3.061Zm.654-16.944a4.651 4.651 0 0 0-3.517 1.582 4.275 4.275 0 0 0-1.065 2.816 4.485 4.485 0 0 0 4.288 4.39 4.82 4.82 0 0 0 .294.009 4.652 4.652 0 0 0 3.516-1.582 4.275 4.275 0 0 0 1.065-2.817 4.485 4.485 0 0 0-4.288-4.389 4.821 4.821 0 0 0-.293-.009ZM407.93 9.09a2.534 2.534 0 0 0 2.567 2.495 2.535 2.535 0 0 0 2.567-2.495 2.535 2.535 0 0 0-2.567-2.494 2.535 2.535 0 0 0-2.567 2.494Z" fill="rgba(207, 175, 109, 1)" fill-rule="evenodd" data-name="location" />
</svg>
