<svg xmlns="http://www.w3.org/2000/svg" width="20" height="20" viewBox="246 0 28.007 15.994">
	<path d="M274.005 1.159a.636.636 0 0 0-.004-.053l-.008-.063a5.559 5.559 0 0 1-.002-.016 1.149 1.149 0 0 1-.003-.02l-.001-.011a.66.66 0 0 0-.011-.07.775.775 0 0 0-.026-.084 2.633 2.633 0 0 1-.01-.027c-.012-.037-.023-.075-.04-.11a.602.602 0 0 0-.032-.06 1.416 1.416 0 0 1-.017-.03 55.596 55.596 0 0 0-.01-.017.993.993 0 0 0-.06-.098.075.075 0 0 1-.006-.008l-.008-.013a.301.301 0 0 0-.03-.034.399.399 0 0 1-.025-.025 18.315 18.315 0 0 1-.014-.016 1.048 1.048 0 0 0-.073-.078 1.054 1.054 0 0 0-.084-.068 25.014 25.014 0 0 1-.008-.006l-.017-.012a.914.914 0 0 0-.077-.054 1.127 1.127 0 0 0-.106-.056 3.228 3.228 0 0 0-.018-.01.982.982 0 0 0-.087-.038 1.043 1.043 0 0 0-.094-.029 6.062 6.062 0 0 1-.022-.006c-.037-.01-.073-.02-.11-.026-.045-.008-.09-.01-.135-.014a.414.414 0 0 1-.032-.003c-.015-.002-.03-.004-.046-.004h-25.571c-.016 0-.031.002-.046.004a.424.424 0 0 1-.033.003c-.044.004-.089.006-.133.014a.857.857 0 0 0-.085.02 6.053 6.053 0 0 0-.026.006 9.92 9.92 0 0 1-.016.005 1.031 1.031 0 0 0-.1.03 1.023 1.023 0 0 0-.091.04 3.244 3.244 0 0 0-.014.008 118.824 118.824 0 0 1-.009.004 1.119 1.119 0 0 0-.097.052c-.033.02-.063.043-.094.066-.031.024-.062.047-.091.074a1.05 1.05 0 0 0-.077.08 23.81 23.81 0 0 1-.011.014l-.024.025a.306.306 0 0 0-.03.034c-.004.003-.007.008-.01.013a.081.081 0 0 1-.004.008c-.027.037-.048.075-.07.114l-.02.035a.569.569 0 0 0-.03.055.771.771 0 0 0-.03.082 2.266 2.266 0 0 1-.01.028l-.02.056a.596.596 0 0 0-.016.056.66.66 0 0 0-.01.07l-.005.031-.01.08a.667.667 0 0 0-.003.052l-.002.016a.067.067 0 0 0-.001.01v13.624c0 .654.545 1.185 1.218 1.185h25.571a1.202 1.202 0 0 0 1.218-1.185V1.185l-.002-.026Zm-25.57 12.465V3.54l10.843 7.833c.215.156.47.233.725.233.256 0 .51-.077.726-.233l10.843-7.833v10.084h-23.137Zm20.672-11.255-9.104 6.577-9.103-6.577h18.207Zm4.761-1.725-.002-.004m-.13-.195V.444" fill="rgba(207, 175, 109, 1)" fill-rule="evenodd" data-name="mail" />
</svg>
