<svg xmlns="http://www.w3.org/2000/svg" width="42.42" height="37.091" viewBox="162 35 42.42 37.091"><path d="M202.575 35h-38.73A1.85 1.85 0 0 0 162 36.855V60.53a1.822 1.822 0 0 0 1.773 1.822 1.938 1.938 0 0 0 .071.002h21.671v7.881c0 .779.584 1.474 1.31 1.741a1.678 1.678 0 0 0 .236.067 1.909 1.909 0 0 0 1.883-.624l7.652-9.065h5.98a1.824 1.824 0 0 0 1.843-1.764 1.896 1.896 0 0 0 0-.06V36.855A1.85 1.85 0 0 0 202.576 35Zm-1.844 23.645h-4.99a1.929 1.929 0 0 0-.36.036c-.437.083-.873.31-1.148.636l-5.03 5.863V60.53c0-1.024-.623-1.886-1.641-1.886h-21.873V38.71h35.042v19.936Zm-28.293-15.299a1.85 1.85 0 0 0-1.844 1.854 1.85 1.85 0 0 0 1.844 1.854h13.352a1.85 1.85 0 0 0 1.844-1.854 1.85 1.85 0 0 0-1.844-1.854h-13.352Zm18.398 3.273a1.873 1.873 0 0 1-.54-1.308 1.847 1.847 0 0 1 1.844-1.854 1.831 1.831 0 0 1 1.306.543 1.88 1.88 0 0 1 .54 1.311c0 .487-.199.965-.54 1.308a1.855 1.855 0 0 1-1.305.547 1.855 1.855 0 0 1-1.305-.547Z" fill="#fff" fill-rule="evenodd" data-name="message"/></svg>