<svg xmlns="http://www.w3.org/2000/svg" width="29.004" height="27.993" viewBox="169 0 29.004 27.993"><path d="M197.194 3.573a1.024 1.024 0 0 0-.065-.059l-3.463-2.91c-.477-.438-1.15-.654-1.854-.594a2.768 2.768 0 0 0-1.668.74c-.035.033-.067.069-.098.106l-3.402 4.145a2.297 2.297 0 0 0-.127 3.063 2.395 2.395 0 0 0 .187.203 1.275 1.275 0 0 0 .198.157l1.74 1.117c-.138.582-1.046 2.27-4.223 5.337a42.627 42.627 0 0 1-1.385 1.283c-2.31 2.04-3.636 2.682-4.144 2.794l-1.158-1.679a1.233 1.233 0 0 0-.162-.19 2.504 2.504 0 0 0-3.384-.06l-4.294 3.284a1.238 1.238 0 0 0-.112.097c-.98.948-1.044 2.49-.15 3.398l3.016 3.343a1.342 1.342 0 0 0 .06.063 2.729 2.729 0 0 0 1.331.669 5.257 5.257 0 0 0 1.136.113c1.767 0 3.811-.675 4.873-1.08 2.006-.76 5.909-2.576 9.812-6.254a31.838 31.838 0 0 0 .276-.263 30.579 30.579 0 0 0 5.616-7.34 25.03 25.03 0 0 0 .889-1.813 22.9 22.9 0 0 0 .248-.585 19.648 19.648 0 0 0 .143-.363c.542-1.41 1.322-3.92.804-5.632a2.483 2.483 0 0 0-.64-1.09Zm-10.312 16.354a29.235 29.235 0 0 0 1.43-1.291 29.164 29.164 0 0 0 .747-.75c5.355-5.557 6.816-11.514 6.29-12.568l-3.355-2.82a.1.1 0 0 1-.002.001.032.032 0 0 0-.008.003l-3.33 4.058 1.7 1.092a1.25 1.25 0 0 1 .097.068 2.056 2.056 0 0 1 .785 1.533 2.286 2.286 0 0 1 .003.125c0 2.436-3.75 6.057-4.997 7.26a53.496 53.496 0 0 1-.24.231c-4.884 4.655-6.748 4.623-7.387 4.591a18.473 18.473 0 0 1-.024 0 2.517 2.517 0 0 1-.207-.02 2.146 2.146 0 0 1-1.38-.74 1.206 1.206 0 0 1-.072-.092l-1.131-1.641-4.205 3.214a.082.082 0 0 0 0 .003.065.065 0 0 0-.003.006l2.921 3.24a.542.542 0 0 0 .002 0c1.055.488 6.806-.802 12.366-5.503ZM191.99 2.5h.003" fill="rgba(207, 175, 109, 1)" fill-rule="evenodd" data-name="phone copy 2"/></svg>