<svg xmlns="http://www.w3.org/2000/svg" width="41.217" height="41.655" viewBox="169 33 41.217 41.655"><path d="M209.066 38.316a1.504 1.504 0 0 0-.092-.087l-4.922-4.331c-.677-.65-1.632-.973-2.634-.883-.893.079-1.757.48-2.37 1.1-.05.05-.096.103-.14.16l-4.835 6.167a3.535 3.535 0 0 0-.021 4.746 3.528 3.528 0 0 0 .108.114 1.851 1.851 0 0 0 .28.233l2.473 1.663c-.197.866-1.487 3.379-6 7.942-4.515 4.563-7.002 5.867-7.86 6.066l-1.643-2.498a1.847 1.847 0 0 0-.23-.285 3.442 3.442 0 0 0-4.81-.087l-6.102 4.886a1.876 1.876 0 0 0-.16.143 3.856 3.856 0 0 0-1.042 2 3.85 3.85 0 0 0-.066.708 3.404 3.404 0 0 0 .896 2.35l4.285 4.974a1.631 1.631 0 0 0 .086.095 3.901 3.901 0 0 0 2.039 1.026 7.335 7.335 0 0 0 1.467.137c2.415 0 5.194-.93 6.746-1.535a28.868 28.868 0 0 0 .179-.07c2.85-1.134 8.397-3.835 13.944-9.31a46.219 46.219 0 0 0 .391-.39 45.026 45.026 0 0 0 8.435-11.831c.29-.6.562-1.201.815-1.802a34.957 34.957 0 0 0 .347-.858c.922-2.37 2.811-8.142.436-10.543Zm-14.468 24.171a42.306 42.306 0 0 0 1.845-1.756c8.48-8.571 10.783-18.178 10.002-19.818l-4.768-4.195-.015.005-4.733 6.038 2.416 1.625c.048.032.094.066.138.103a2.967 2.967 0 0 1 .581.636 3.217 3.217 0 0 1 .535 1.645 3.562 3.562 0 0 1 .005.184c0 3.264-4.316 7.953-6.471 10.164a116.934 116.934 0 0 1-.63.64c-7.195 7.273-9.917 7.224-10.84 7.175a24.57 24.57 0 0 1-.033-.001 3.472 3.472 0 0 1-.022-.002 3.044 3.044 0 0 1-2.235-1.126 1.804 1.804 0 0 1-.1-.14l-1.608-2.44-5.975 4.783a.348.348 0 0 0-.003.006.157.157 0 0 0-.002.007l4.151 4.821a1.357 1.357 0 0 0 .377.108c2.202.35 9.939-1.79 17.385-8.462Z" fill="#fff" fill-rule="evenodd" data-name="phone"/></svg>