<svg xmlns="http://www.w3.org/2000/svg" width="23.039" height="18.917" viewBox="11.366 13.788 23.039 18.917"><path d="M34.378 16.041a.112.112 0 0 0-.134-.03 9.208 9.208 0 0 1-2.16.66 4.824 4.824 0 0 0 1.685-2.388.114.114 0 0 0-.167-.134 9.176 9.176 0 0 1-2.874 1.118 4.799 4.799 0 0 0-3.455-1.48c-2.644 0-4.795 2.169-4.795 4.832 0 .324.031.643.093.952-3.662-.227-7.085-2-9.413-4.877a.113.113 0 0 0-.188.015 4.861 4.861 0 0 0-.65 2.429c0 1.481.668 2.867 1.806 3.78a4.55 4.55 0 0 1-1.673-.545.12.12 0 0 0-.113 0 .117.117 0 0 0-.057.098v.062a4.845 4.845 0 0 0 3.37 4.617 4.532 4.532 0 0 1-1.595-.025.121.121 0 0 0-.107.038.118.118 0 0 0-.023.112 4.801 4.801 0 0 0 4.162 3.34 9.165 9.165 0 0 1-5.493 1.804 9.29 9.29 0 0 1-1.103-.065.117.117 0 0 0-.121.077.115.115 0 0 0 .046.135 13.311 13.311 0 0 0 7.235 2.138c8.406 0 13.43-6.883 13.43-13.537 0-.185-.004-.37-.011-.554a9.603 9.603 0 0 0 2.313-2.433.117.117 0 0 0-.008-.139Z" fill="rgba(21, 37, 70, 1)" fill-rule="evenodd" data-name="Twitter Social Logotype. Attribute as Freepik from Flaticon.com copy"/></svg>