<svg xmlns="http://www.w3.org/2000/svg" width="17" height="15" viewBox="91 12 17 15"><path d="M101.803 21.897a.77.77 0 0 0-.703.133l-1.6 1.284-1.6-1.284a.77.77 0 0 0-.703-.133c-.912.274-5.03 1.61-5.995 3.578a1.87 1.87 0 0 0-.202.828.712.712 0 0 0 .622.689.787.787 0 0 0 .117.008h15.522a.759.759 0 0 0 .528-.21.676.676 0 0 0 .211-.487 2.206 2.206 0 0 0-.588-1.41c-1.231-1.466-4.063-2.5-5.25-2.884a18.328 18.328 0 0 0-.359-.112Zm-2.303-.462a5.091 5.091 0 0 0 3.64-1.505 4.572 4.572 0 0 0 1.335-3.213 4.817 4.817 0 0 0-4.311-4.675A5.269 5.269 0 0 0 99.5 12a5.091 5.091 0 0 0-3.64 1.506 4.57 4.57 0 0 0-1.335 3.211 4.817 4.817 0 0 0 4.311 4.676 5.269 5.269 0 0 0 .664.042Zm-6.357 3.924a3.503 3.503 0 0 0-.277.246h13.268c-.68-.68-2.152-1.424-3.567-1.964a19.089 19.089 0 0 0-.827-.293l-1.761 1.413a.764.764 0 0 1-.479.167.764.764 0 0 1-.479-.167l-1.76-1.413c-1.468.482-3.194 1.265-4.118 2.01ZM99.5 13.395c1.928 0 3.497 1.49 3.497 3.322a3.392 3.392 0 0 1-3.074 3.299 3.701 3.701 0 0 1-.423.024 3.574 3.574 0 0 1-2.58-1.082 3.22 3.22 0 0 1-.917-2.24 3.39 3.39 0 0 1 3.052-3.296 3.699 3.699 0 0 1 .445-.027Z" fill="rgba(255, 255, 255, 1)" fill-rule="evenodd" data-name="user"/></svg>