<svg xmlns="http://www.w3.org/2000/svg" width="20" height="20" viewBox="10 10 21.41 21.62">
	<path d="M31.41 20.532c0 5.817-4.705 10.532-10.51 10.532a10.451 10.451 0 0 1-4.359-.946 10.487 10.487 0 0 1-.722-.364L10 31.62l1.897-5.651a10.482 10.482 0 0 1-1.494-4.88 10.711 10.711 0 0 1-.014-.558A10.521 10.521 0 0 1 20.899 10a10.52 10.52 0 0 1 10.51 10.532ZM20.9 11.677c-4.873 0-8.837 3.973-8.837 8.855a8.81 8.81 0 0 0 1.114 4.3 8.897 8.897 0 0 0 .57.891l-1.105 3.289 3.396-1.09a8.772 8.772 0 0 0 4.433 1.454 8.91 8.91 0 0 0 .429.01c4.872 0 8.836-3.971 8.836-8.854a8.856 8.856 0 0 0-8.836-8.855Zm5.307 11.28a.268.268 0 0 0-.056-.063c-.072-.062-.188-.115-.343-.191a8.355 8.355 0 0 1-.095-.047c-.258-.129-1.525-.754-1.76-.84a1.942 1.942 0 0 0-.12-.04c-.154-.045-.28-.044-.404.095a.685.685 0 0 0-.057.075 2.655 2.655 0 0 1-.067.096c-.209.286-.614.763-.748.916a.572.572 0 0 1-.081.078c-.124.095-.26.093-.465-.008a1.397 1.397 0 0 1-.013-.006c-.24-.12-.974-.364-1.868-1.106a7.323 7.323 0 0 1-.203-.175 6.17 6.17 0 0 1-.405-.397 8.115 8.115 0 0 1-1.028-1.39c-.15-.259-.016-.398.112-.527.117-.115.258-.302.387-.452a1.375 1.375 0 0 0 .052-.065c.089-.116.13-.214.2-.355a6.288 6.288 0 0 1 .006-.01.472.472 0 0 0 .032-.083.485.485 0 0 0-.045-.351 1.016 1.016 0 0 0-.009-.019 1.302 1.302 0 0 1-.022-.047c-.113-.258-.542-1.311-.75-1.816a58.26 58.26 0 0 0-.022-.054 1.615 1.615 0 0 0-.065-.137c-.19-.36-.376-.294-.511-.293a.415.415 0 0 1-.004 0c-.15 0-.322-.021-.494-.021a.79.79 0 0 0-.129.01.974.974 0 0 0-.558.313c-.236.258-.901.883-.901 2.152a3.589 3.589 0 0 0 .28 1.313c.28.7.68 1.236.769 1.354a320.158 320.158 0 0 0 .003.003c.1.135 1.136 1.814 2.837 3.033a7.305 7.305 0 0 0 1.563.865c2.62 1.033 2.62.688 3.092.646a1.086 1.086 0 0 0 .184-.036c.52-.142 1.365-.658 1.556-1.192a3.508 3.508 0 0 0 .105-.352c.107-.443.096-.79.045-.875Z" fill="rgba(207, 175, 109, 1)" fill-rule="evenodd" data-name="Whatsapp logo designed by SimpleIcon from Flaticon.com copy" />
</svg>
